<svg xmlns="http://www.w3.org/2000/svg" id="f5761705-4ac3-4a43-a51e-272b2b730ee2" viewBox="401.5 47.06 510.62 505.41">
  <defs>
    <style>
      .f97fb43d-0f7d-41d3-bf79-0b88bf158681{fill:#ffdda8}.a25acc07-c701-44bf-8b84-a0a0a00ee1d9{fill:#faab18}.b9fae9a4-f728-4f20-8584-2d4ac3a57d2e{fill:#40bd0f}.ac38155e-30db-421e-9606-cb49b13e264a{fill:#b17549}.bef4a47d-bb89-4050-a01b-e6788749d85e{fill:#524538}
    </style>
  </defs>
  <path fill="#83807a" d="M718.2 509.6c-6-4.8-15.7-8-22.5-10-26.3-7.5-53.7-6.2-80.8-7-35.8-1.2-70.3-.6-105.7 6.1a63.8 63.8 0 0 0-27.4 10.7c-3.8 2.8-7 6.6-8.3 11.2-5.8 22 47.7 27.6 61 29.4 26.3 3.3 52.8 2.6 79.2 1.8 23.9-.7 47.3-3 70.7-8.4 10.9-2.6 24-5.7 32.7-13.6 9.4-8.6 7.3-15.3 1.1-20.2Z"/>
  <path fill="#ffd598" d="M677.5 236.4c1-4.3.6-8.8 2.6-13a91.3 91.3 0 0 1 20.7 2.6 5.3 5.3 0 0 1 2.7 1.9 39.8 39.8 0 0 1 3.1 4.8c1.4 2.3 2.5 4.8 4 7a33.5 33.5 0 0 0 25.7 16.5 73.9 73.9 0 0 0 9.8.2c5.4-.3 10.2 1 13.7 5.6a9.4 9.4 0 0 0 1.1 1.3 4 4 0 0 0 4.2 1c2.7-.8 4.3-2.5 4.4-5.4a24.9 24.9 0 0 1 .2-2.8c.2-1-.4-2.4.9-3 .4 0 .8 0 1 .2a88.3 88.3 0 0 1 12.8 12.5c4.6 5.3 3 12-.8 16.3-1.6 1.8-6.2 7.2-8.8 7.2-2.3 0-7.2-4.6-9-6a75.2 75.2 0 0 0-10-6.4 338 338 0 0 0-22.2-11 171.3 171.3 0 0 0-46-14l-9.2-1a15.6 15.6 0 0 1-3-1.2c.7-4.6 1.2-9 2.1-13.3Zm-263.2 29.3a88.3 88.3 0 0 1 12.8-12.4c.2-.2.7-.2 1-.3 1.3.7.8 2 1 3a24.9 24.9 0 0 1 .1 2.9c.2 2.9 1.7 4.5 4.4 5.4a4 4 0 0 0 4.2-1 9.4 9.4 0 0 0 1.1-1.4c3.5-4.6 8.3-5.8 13.8-5.6a73.9 73.9 0 0 0 9.7-.2c11.4-1 19.6-7.2 25.7-16.5 1.5-2.2 2.6-4.7 4-7a39.8 39.8 0 0 1 3.1-4.8 5.3 5.3 0 0 1 2.8-1.9 91.3 91.3 0 0 1 20.7-2.5c2 4.1 1.6 8.7 2.5 13s1.4 8.6 2.2 13.3a15.8 15.8 0 0 1-3 1.1c-3 .5-6.1.7-9.2 1.1a167.6 167.6 0 0 0-46 14c-7.6 3.4-15 7.1-22.2 11a71.7 71.7 0 0 0-12 8c-3.1 2.6-6.2 4.2-10.2 2.2a22.3 22.3 0 0 1-5.6-5c-3.8-4.4-5.4-11.1-.9-16.4Z"/>
  <path d="M749 440.5c-10.3 15.3-20 30.8-32.4 44.7a132.3 132.3 0 0 1-27.2 23 89.7 89.7 0 0 1-23.9 10.9c-8 2.4-15.5 6.5-23.7 8.4-9.8 2.4-19.8 2.6-29.8 3.1a273 273 0 0 1-49.3-2.2c-9.8-1.3-18-5.2-27-8.5s-18.3-6.4-26.5-11.8a132.3 132.3 0 0 1-27.2-22.9 416.7 416.7 0 0 1-30.4-40.6 196 196 0 0 1-25.4-51.4 286.7 286.7 0 0 1-15.5-86.5l-.6-15c0-.9-.3-2 1.1-2.7l3.6 3.3a141.8 141.8 0 0 0 45 28.7 255.8 255.8 0 0 0 42.8 13.3 767 767 0 0 0 36.8 6.7c7.2 1.2 14.5 1.8 21.8 2.5 7.4.8 14.9 1.4 22.4 2a194.8 194.8 0 0 0 31.5 0c7.5-.5 15-1.2 22.4-2 7.3-.7 14.6-1.3 21.8-2.5a777 777 0 0 0 36.8-6.7 255.8 255.8 0 0 0 42.8-13.3 141.8 141.8 0 0 0 45-28.6l3.6-3.3c1.4.7 1.2 1.8 1.1 2.7l-.6 15a429 429 0 0 1-4.5 42.4c-2.3 15-6.3 29.5-11 44a189.3 189.3 0 0 1-23.5 47.3Zm153.8-95.4a59 59 0 0 1-4.2 16.1 113.8 113.8 0 0 1-15.9 26.7 167.7 167.7 0 0 1-33.2 31 95.7 95.7 0 0 1-26.5 13.7l-14.3 4.4a165.3 165.3 0 0 1-28.6 6.2c-3.3.4-8 1.7-10.9-.3-3.1-2.2-4.2-7.6-3.5-11.2 2.3-12.2 16-16.4 26.1-19.4a145.8 145.8 0 0 0 45-21.7 73 73 0 0 0 18.7-19.3c4.8-7.4 8-15.3 7.6-24.4 0-2 0-4.2-.3-6.3-1-8-4-14.6-10.4-19.9a26.8 26.8 0 0 0-19.3-6 63.2 63.2 0 0 0-19.5 4.3c-3.6 1.4-11.7 8-15.4 6.2-7.7-3.7-2.2-23.8 3.1-27.8 4.1-3 10.5-5.3 15.3-7.5a78 78 0 0 1 18.2-6 69 69 0 0 1 41.3 3.1 40 40 0 0 1 22 20.9 70 70 0 0 1 4.7 37.2Z" class="f97fb43d-0f7d-41d3-bf79-0b88bf158681"/>
  <path fill="#cba680" d="M683.7 259.7A202 202 0 0 1 751 284c3.8 2.1 8.9 4 11 8.1 2.7 5.5-1.6 8.1-5.8 10.6a160.4 160.4 0 0 1-34 15.4 310.8 310.8 0 0 1-48 11.8c-9.5 1.5-19 3.1-28.5 4.3-9.7 1.1-19.5 1.8-29.3 2.6a215.8 215.8 0 0 1-34 0c-9.8-.8-19.6-1.5-29.3-2.6-9.6-1.2-19-2.8-28.5-4.3a311 311 0 0 1-48-11.8 169 169 0 0 1-23.4-9.5q-5.8-2.9-11.3-6.2c-3-1.9-6.4-3.6-5.4-7.9 1.2-5.2 7-8.1 11.3-10.5a202.2 202.2 0 0 1 67.3-24.3c3.1-.5 6.3-1.6 9.8-.8.9 4 1.8 8 2.4 12 .7 4.2 2.5 7.5 6.5 9.4 1.6.8 3 1.9 4.6 2.4 5.2 2 10.4 4 15.8 5.4 10 2.8 20.3 3.8 30.7 4.5a219.3 219.3 0 0 0 29 0c10.3-.7 20.7-1.7 30.7-4.5 5.4-1.4 10.6-3.5 15.8-5.4 1.6-.5 3-1.6 4.5-2.4 4-1.9 5.9-5.2 6.5-9.5.6-4 1.6-7.8 2.4-11.9 3.5-.8 6.7.3 9.9.8Z"/>
  <path fill="#f8b79d" d="m532 188 5.2 12.8c2.4 5.5 7 8.3 12.6 8.8a84.5 84.5 0 0 0 25.3-1.3 8.7 8.7 0 0 0 5.4-3.1 65.7 65.7 0 0 0 4.5-6.6 58 58 0 0 0 3.1-6.8 10.3 10.3 0 0 1 7.1-6.3l4.1-1 4.2 1a10.3 10.3 0 0 1 7 6.3 58 58 0 0 0 3.2 6.8 65.7 65.7 0 0 0 4.5 6.6 8.7 8.7 0 0 0 5.4 3.1 84.5 84.5 0 0 0 25.2 1.3c5.6-.5 10.2-3.3 12.6-8.8 1.9-4.2 3.5-8.5 5.2-12.8l2.5-6.4a12.6 12.6 0 0 1 1.8-2.1 30.8 30.8 0 0 1 1.5 8.3 147.4 147.4 0 0 1-1.6 35.6l-6.3 37.5c-.6 4-1.6 7.9-2.3 11.5a16.4 16.4 0 0 1-7.4 4 147.5 147.5 0 0 1-27.4 6.3 214.2 214.2 0 0 1-56.2 0 147.6 147.6 0 0 1-27.4-6.3c-2.6-.8-5.1-1.7-7.4-4-.7-3.6-1.7-7.5-2.3-11.5-2.2-12.5-4-25-6.3-37.5a147 147 0 0 1-1.6-35.6 30.8 30.8 0 0 1 1.5-8.3 12.4 12.4 0 0 1 1.8 2c1 2.2 1.7 4.4 2.6 6.5Zm89.7-42a10.5 10.5 0 0 1 4.2-8 24.7 24.7 0 0 1 2.4 2 41.4 41.4 0 0 0 27 11.1c3.2.3 6.5.5 9.7.9a9.9 9.9 0 0 0 .1 1.6A60.2 60.2 0 0 0 668 164c-6.7 0-13-.3-19.3-.7l-13.3-.7c-4.4-.2-8.8-.6-13.2-.7-15.2-.5-30.3-.5-45.5 0-4.4 0-8.8.4-13.2.7l-13.3.7c-6.3.4-12.6.8-19.3.7l1.2-3.5c3.7-.7 7.3-1.3 10.8-2.1a66 66 0 0 0 29-16c1.2-1.1 2.1-2.8 4.3-3a44 44 0 0 0 24.2 15.5c4.4 1.4 9 2.3 13.6 1.4 6-1 7.6-3 7.8-9.2V146Z"/>
  <path fill="#a7d388" d="M521.5 151.4a12.6 12.6 0 0 1 .5-2.7 73 73 0 0 1 14.3-20.1c2.2-2.3 4.3-5 7-6.8 3.5-2.2 6.5-1.5 10.3-.8a13.8 13.8 0 0 0 2.9.2c.9 0 4-.5 3.1-2.1a3.3 3.3 0 0 0-1.9-1.2 15.5 15.5 0 0 1-9.8-10.5 15.2 15.2 0 0 1 3.8-15c4.2-4.7 9.7-7.4 15.7-9 6.3-1.8 12.6-3 19.3-4.7l1.6 3.9-2.8 1.7a3.6 3.6 0 0 0-1.7 4 3.4 3.4 0 0 0 3.3 2.7 29.8 29.8 0 0 0 19.4-6c1.9-1.5 2.2-4.5.5-5.6-3.3-2.2-3.5-5.3-3.7-8.5v-2.6c4.5-4.4 10.7-7 14.3-12.6 4.5 2 6 5.8 6.4 10a30.4 30.4 0 0 1-8.7 24.8 2.8 2.8 0 0 0-1 2 2 2 0 0 0 2 1.7 5.9 5.9 0 0 0 2.7-.8c2.6-1.2 5.3-2.5 6.8-4.9a15.3 15.3 0 0 1 6.6-5.7c5.2-2.4 11 1.2 14 5.6 2.6 3.8.8 8.9-2.2 12a34.9 34.9 0 0 1-7.1 6 29.4 29.4 0 0 0-3.2 1.8 3.4 3.4 0 0 0-1.3 1.5 1.7 1.7 0 0 0 .3 1.8 2.6 2.6 0 0 0 2.3.3c5.8-1.2 12-5 17.8-1.5a27.3 27.3 0 0 1 6.3 5.3 75 75 0 0 1 14.7 23.2 23.1 23.1 0 0 1 1.5 6.1 11.3 11.3 0 0 1-2 .1l-14.2-2c-3.6-.4-7.3-.5-10.8-1.3a30 30 0 0 1-13-6l-7-6c-3.2-2.3-4.7-2.2-7.6.6-4 4-7 8.6-7.9 14.4a21.8 21.8 0 0 1-.5 2.3l-.4.6c-2.5.9-5.2.4-7.8-.2a41.6 41.6 0 0 1-16-7.4 41.1 41.1 0 0 1-6-6.2 8.8 8.8 0 0 1-2.3-6.8 3.8 3.8 0 0 0-3.5-4.4 4.7 4.7 0 0 0-4.4 3 6.8 6.8 0 0 0-.4 2.9 3.8 3.8 0 0 1-1.2 3 57.9 57.9 0 0 1-33.7 19.6 41.2 41.2 0 0 1-15.3.3Z"/>
  <path fill="#f7941d" d="M674 241.2c1-4.3.5-8.8 2.5-13 19 0 37.2 8 54.7 14.6 9.2 3.5 18.4 7 27.4 10.9a58 58 0 0 1 22.2 16.8c4.6 5.3 3 12-.7 16.3-1.7 1.9-6.3 7.2-8.9 7.2-2.3 0-7.2-4.5-9-6a73.5 73.5 0 0 0-10-6.3c-7.2-3.9-14.6-7.6-22.2-11a167.8 167.8 0 0 0-46-14l-9.1-1.1a15.8 15.8 0 0 1-3-1.1c.6-4.6 1.1-9 2.1-13.3Zm-263.3 29.3c5.6-6.6 12.4-11.6 19.4-16.6 4.3-3.1 9.3-5.2 14.2-7.3 22.5-9.4 46-18.5 70.7-18.4 2 4.2 1.6 8.7 2.5 13s1.5 8.7 2.2 13.4a15.8 15.8 0 0 1-3 1c-3 .5-6 .8-9.1 1.2-16.2 2-31.3 7.4-46 14-7.6 3.3-15 7-22.3 11a72.3 72.3 0 0 0-12 8c-3 2.6-6.2 4.2-10.2 2.1-2-1-4-3.3-5.6-5-3.8-4.4-5.3-11-.8-16.4Z"/>
  <path d="M745.4 445.3c-10.3 15.3-20 30.8-32.3 44.7a132.1 132.1 0 0 1-27.3 23 89.5 89.5 0 0 1-23.9 11c-8 2.3-15.5 6.4-23.7 8.4-9.7 2.3-19.8 2.6-29.8 3a272.8 272.8 0 0 1-49.2-2.1c-9.8-1.3-18-5.3-27.1-8.5s-18.3-6.5-26.4-11.8a132.1 132.1 0 0 1-27.3-23 416.7 416.7 0 0 1-30.4-40.6 196.9 196.9 0 0 1-25.4-51.4 285.6 285.6 0 0 1-15.5-86.5l-.6-15c0-.9-.3-2 1.1-2.7l3.7 3.4a141.9 141.9 0 0 0 45 28.6A255.5 255.5 0 0 0 499 339a741 741 0 0 0 36.7 6.7 1119.7 1119.7 0 0 0 44.1 4.5 197.3 197.3 0 0 0 31.7 0c7.4-.5 14.9-1.1 22.3-2 7.3-.6 14.6-1.3 21.8-2.5a767 767 0 0 0 36.8-6.7 255.5 255.5 0 0 0 42.8-13.3 141.9 141.9 0 0 0 45-28.6l3.6-3.3c1.4.7 1.1 1.8 1.1 2.7-.2 5-.3 10-.7 15a304.4 304.4 0 0 1-15.4 86.5 189.4 189.4 0 0 1-23.5 47.3Z" class="a25acc07-c701-44bf-8b84-a0a0a00ee1d9"/>
  <path fill="#6d4139" d="M762 295.8c-2.1-4.2-7.2-6.1-11-8.2a230.2 230.2 0 0 0-36.3-16.5 184.1 184.1 0 0 0-19.6-5.6c-2.7-.6-7.4-2.2-11.4-2.2a7.3 7.3 0 0 0-5.3 1.8c-2 2-1.7 5.4-2.4 8.2a14.7 14.7 0 0 1-5.4 8c-6.8 5.5-17.7 8.2-26 10.4-10 2.8-20.3 3.8-30.7 4.5a217.6 217.6 0 0 1-29 0c-10.3-.7-20.7-1.7-30.7-4.5-5.4-1.4-10.6-3.5-15.8-5.4-5.7-2-11.7-5.6-13.7-11.6-1.7-5.3-3-11.4-9.7-11.3-7.2 0-15.4 2.9-22.3 5a222 222 0 0 0-45 19.2c-4.2 2.4-10 5.3-11.2 10.6-1 4.2 2.4 6 5.5 7.8q5.4 3.4 11.2 6.2a169.1 169.1 0 0 0 23.4 9.5 311 311 0 0 0 48 11.8c9.4 1.5 18.9 3.1 28.4 4.3 9.7 1.1 19.5 1.8 29.3 2.6a217 217 0 0 0 34 0c9.9-.8 19.6-1.5 29.4-2.6 9.5-1.2 19-2.8 28.4-4.3a310.8 310.8 0 0 0 48-11.8 160.4 160.4 0 0 0 34-15.3c4.3-2.6 8.6-5.2 5.9-10.6Zm-306.6 2a3.8 3.8 0 0 1-3.4.2c1.2-6.1 6.6-10.2 11.8-13a60 60 0 0 1 8.7-3.6c3.4-1.1 6.9-2.7 10.5-3 .7 1-.7 2.4-2.8 3.6-3 1.8-7.5 3.4-8.4 3.9a60.5 60.5 0 0 0-13.6 9.6 13.7 13.7 0 0 1-2.8 2.3Zm31-6.3a1.8 1.8 0 0 1-.5 1 20.9 20.9 0 0 1-1.5 1.4c-4 3.5-8.9 5.5-12.6 9.1a4.5 4.5 0 0 1-1.3 1 1.3 1.3 0 0 1-1.5-.2c-1.6-2 3.2-5.7 4.2-7a21.5 21.5 0 0 1 2.3-2.5c2.3-2 5.3-3 8.2-3.8a3.5 3.5 0 0 1 1.7-.2 1.2 1.2 0 0 1 1 1.3Zm53.5 9a34.2 34.2 0 0 1-12.6-4c-6.5-3.9-12-9.5-15-16.5-1.6-3.7.2-4.2 2.7-2.6s4.2 4.4 6.4 6.3a53.7 53.7 0 0 0 16 9.9c2.3.9 4.7 1.4 7.1 2.1 3.6 1.2 3.7 2.4 2.5 3.4-1.4 1-5 1.7-7 1.4Zm50.1 19.2c-7.3 1.2-14.9 2.5-22.4 1.6a48.3 48.3 0 0 1-25.8-10.7c-.6-.4-1.1-1.2-.6-1.7a1.2 1.2 0 0 1 .6-.2 11.2 11.2 0 0 1 5 .6c12.2 3.5 24 7.1 36.9 7.4h2.7a11.8 11.8 0 0 1 4.6.6 1.4 1.4 0 0 1 .8.7c.4 1-.8 1.6-1.8 1.7Zm-15-14.3c-1-.3-2.2-1-1.8-2 .3-.6 1-.8 1.7-.8 8.4-.8 16.5.2 24.8 0 4.5 0 9 0 13.5-.5s8.7-1.4 13-2l4.7-.7a2.3 2.3 0 0 1 2 .4c.8.8 0 2.2-1.1 2.6l-1.7.7a91.4 91.4 0 0 1-9.7 3.6 82.2 82.2 0 0 1-45.4-1.3Zm92 4a101.6 101.6 0 0 1-21.7 10.1 94.1 94.1 0 0 1-11.8 3c-3.5.8-7.2.5-10.8 1-1.9.3-4 .5-5.5-.6a1.2 1.2 0 0 1-.6-1.1c.2-1 2.7-1.4 3.5-1.8 1.3-.5 2.7-.9 4-1.2l1.5-.4c4.2-1.2 8.3-2.6 12.4-4 3.7-1.2 7.5-1.7 11.1-3 7.8-3 15-7.4 22.8-10.4.8-.3 1.8-.6 2.4 0 2.7 2.4-6 7.5-7.3 8.4Zm20.6-30.6a12.3 12.3 0 0 1-3.7 6.3 30.5 30.5 0 0 1-13.4 7.7 32.7 32.7 0 0 1-6.2 1.1 3.5 3.5 0 0 1-1.5 0 1.3 1.3 0 0 1-1-1.2c0-.8 1-1.3 1.7-1.6a38.1 38.1 0 0 0 15.3-10.3 10.1 10.1 0 0 0 2.8-6.6c0-2.5-1.4-5.1 2.4-3.6 3.6 1.5 4.3 4.4 3.6 8.1Zm52.9 21.9c-1.3.3-2.3-1-3-2.2a29.7 29.7 0 0 0-11.3-9.4 87.3 87.3 0 0 0-17.5-6.7l-5.9-1.6a3.3 3.3 0 0 1-1.4-.7 1.1 1.1 0 0 1-.2-1.4 1.6 1.6 0 0 1 1.2-.4c2.7 0 5.6-.4 8.2-.2a53.8 53.8 0 0 1 6 1.1 78 78 0 0 1 9.4 2.7 22.1 22.1 0 0 1 14 13c.8 1.9 1.5 4.1.4 5.8Z"/>
  <path d="M899.2 350a59.2 59.2 0 0 1-4.2 16 113.8 113.8 0 0 1-15.8 26.7 167.6 167.6 0 0 1-33.3 31 95.7 95.7 0 0 1-26.5 13.7l-14.2 4.4a165.3 165.3 0 0 1-28.6 6.2c-3.3.4-8 1.7-11-.3-3-2.2-4.2-7.6-3.5-11.2 2.3-12.2 16-16.4 26.2-19.4a146.3 146.3 0 0 0 44.9-21.6 73 73 0 0 0 18.7-19.4c4.8-7.4 8-15.3 7.7-24.4l-.4-6.3c-1-8-4-14.6-10.4-19.8a26.8 26.8 0 0 0-19.3-6 63.1 63.1 0 0 0-19.5 4.2c-3.6 1.4-11.7 8-15.5 6.2-7.7-3.7-2.2-23.8 3.1-27.8 4.2-3 10.6-5.3 15.3-7.5a78.2 78.2 0 0 1 18.3-6 69 69 0 0 1 41.2 3.1 40 40 0 0 1 22 20.9c5.3 12 6.4 24.4 4.8 37.2Z" class="a25acc07-c701-44bf-8b84-a0a0a00ee1d9"/>
  <path fill="#f40010" d="M531 191.2c.3-4.1.7-10 4.2-12.8a11.8 11.8 0 0 1 5.4-1.9c8.9-1.5 17.8-3.1 26.9-3.3 5.5-.2 11 .2 16.5.6l55.5 3.6c7.7.5 15.5 1 23-.3 3.3-.6 6.8-1.5 10-.5a6.6 6.6 0 0 1 4.5 5.5c.2 1.2-.6 2.2-.6 3.4 0 1.9.6 4 .8 5.9a147.5 147.5 0 0 1-1.7 35.6c-2.2 12.5-4.1 25-6.2 37.5-.7 4-1.6 7.9-2.4 11.5-2.2 2.3-4.8 3.1-7.3 4a147.9 147.9 0 0 1-27.5 6.3 215 215 0 0 1-56.2 0 147.9 147.9 0 0 1-27.3-6.3c-2.5-.8-5-1.7-7.3-4-.8-3.6-1.7-7.5-2.4-11.5-2.1-12.5-4-25-6.2-37.5a147.5 147.5 0 0 1-1.7-35.6Zm95.5-41.6a10.5 10.5 0 0 1 4.2-8 25.8 25.8 0 0 1 2.4 2 41.4 41.4 0 0 0 27 11.1c3.3.3 6.5.5 9.7.9a11.3 11.3 0 0 0 .2 1.6 61.3 61.3 0 0 0 2.7 10.4c-6.7 0-13-.3-19.3-.7l-13.3-.7c-4.4-.3-8.8-.6-13.2-.7-15.2-.5-30.3-.5-45.5 0-4.4.1-8.8.5-13.2.7l-13.3.7c-6.3.4-12.5.8-19.3.7l1.2-3.4c3.7-.8 7.3-1.3 10.8-2.2a66.4 66.4 0 0 0 29-16c1.2-1 2.1-2.7 4.3-3a44 44 0 0 0 24.2 15.6c4.4 1.3 9 2.3 13.6 1.4 6-1 7.7-3 7.8-9.2v-1.2Z"/>
  <path d="M589.6 55c4.2 4.6 7 13.8 7.3 24.3 0 .8-.6 1.5-1.2 3-2.2-5-3.6-9-5.8-12.4-2-3.3-5-6-7.7-9.2a13.5 13.5 0 0 1 7.4-5.7Z" class="b9fae9a4-f728-4f20-8584-2d4ac3a57d2e"/>
  <path d="M525.2 151.4a12 12 0 0 1 .4-2.7 73 73 0 0 1 14.3-20.1c2.2-2.3 4.3-5 7-6.8 3.5-2.2 6.5-1.5 10.3-.8a13.8 13.8 0 0 0 2.9.2c.9 0 4-.5 3.1-2.1a3.3 3.3 0 0 0-1.9-1.2 15.5 15.5 0 0 1-9.8-10.5 15.2 15.2 0 0 1 3.8-15c4.2-4.7 9.7-7.4 15.7-9 6.3-1.8 12.6-3 19.3-4.7l1.6 3.9-2.8 1.7a3.6 3.6 0 0 0-1.7 4 3.4 3.4 0 0 0 3.3 2.7 29.8 29.8 0 0 0 19.4-6c1.9-1.5 2.3-4.5.5-5.6-3.3-2.2-3.5-5.3-3.7-8.5v-2.6c4.5-4.4 10.7-7 14.4-12.6 4.4 2 5.8 5.8 6.3 10a30.5 30.5 0 0 1-8.7 24.8 2.7 2.7 0 0 0-1 2 2 2 0 0 0 2 1.7 5.9 5.9 0 0 0 2.7-.8c2.6-1.2 5.4-2.5 6.9-4.9a15.3 15.3 0 0 1 6.5-5.7c5.2-2.5 11 1.2 14 5.6 2.6 3.8.8 8.9-2.2 12a34.6 34.6 0 0 1-7.1 6 30.2 30.2 0 0 0-3.2 1.8 3.4 3.4 0 0 0-1.3 1.4 1.7 1.7 0 0 0 .3 1.8 2.6 2.6 0 0 0 2.3.3c5.8-1.2 12-5 17.8-1.5a27 27 0 0 1 6.3 5.3c6.1 7 11.4 14.5 14.7 23.3a24 24 0 0 1 1.5 6 11.3 11.3 0 0 1-2 .2l-14.2-2c-3.6-.5-7.3-.6-10.8-1.4a30.1 30.1 0 0 1-13-6c-2.3-2-4.6-4-7-5.8-3.1-2.4-4.7-2.3-7.6.5-4 4-7 8.6-7.9 14.4 0 .7-.3 1.5-.4 2.2 0 .2-.2.3-.5.7-2.5.8-5.2.4-7.8-.2a41.6 41.6 0 0 1-16-7.4 40.6 40.6 0 0 1-6-6.2 8.7 8.7 0 0 1-2.3-6.8 3.8 3.8 0 0 0-3.5-4.4 4.7 4.7 0 0 0-4.4 3 7 7 0 0 0-.4 2.9 3.8 3.8 0 0 1-1.2 3 58 58 0 0 1-33.7 19.6 41.1 41.1 0 0 1-15.2.3Z" class="b9fae9a4-f728-4f20-8584-2d4ac3a57d2e"/>
  <path d="M716.8 454.8c3.7-2.6 6-6.6 8.7-10.3a98.2 98.2 0 0 0 9.4-15.3c6.8-14.6 13.7-29.1 20.2-43.8a133 133 0 0 0 8.6-27c.3-1.7.5-3.7-.9-4.6a2.9 2.9 0 0 0-3.4.5 8.4 8.4 0 0 0-1.9 3.2c-2.3 5.6-5.1 11.3-7 17.1l-14.3 32a300.5 300.5 0 0 1-25.3 45.8c-.8 1.1-1.6 2.4-1.2 3.7a5.7 5.7 0 0 0 4.8 0 14.7 14.7 0 0 0 2.3-1.3ZM703.3 468a3.5 3.5 0 0 0 3.7-3.4 4.1 4.1 0 0 0-3.8-4.1 3.8 3.8 0 0 0-3.4 3.2 4 4 0 0 0 3.5 4.4Z" class="f97fb43d-0f7d-41d3-bf79-0b88bf158681"/>
  <path d="M622.3 417a29.3 29.3 0 0 1 2.6 7.2 29 29 0 0 1 1.4 7.5 42.9 42.9 0 0 1-4 14.7 30.2 30.2 0 0 1-4.9 5.9 29.4 29.4 0 0 1-6 4.5 28.4 28.4 0 0 1-7 2.8l-2 .5a48.1 48.1 0 0 0 13-18.4 69.6 69.6 0 0 0 7-24.7Z" class="ac38155e-30db-421e-9606-cb49b13e264a"/>
  <path fill="#00b063" d="M576.3 411.1a43.8 43.8 0 0 1 12.9-7.8 29.3 29.3 0 0 1 7.6-1 29.8 29.8 0 0 1 7.6 1 24 24 0 0 1 5.5 2.3 47.9 47.9 0 0 0-19 11.5 24.8 24.8 0 0 1-16.8-3.8l2.2-2.2Zm6.8 18.3a23 23 0 0 1-7.1-.1c0-.3.2-.5.3-.7a23 23 0 0 1 1.1-2.1 21.3 21.3 0 0 1 3.3-4c2.5.7 5.3 1.3 5.7.7a34.7 34.7 0 0 0-3 6Z"/>
  <path d="M590.6 427.8a33.8 33.8 0 0 1 19.2-15.8 63.3 63.3 0 0 0-20 45c-4-9.4-4-20 .8-29.2Z" class="ac38155e-30db-421e-9606-cb49b13e264a"/>
  <path d="M593.4 460.4c-1-.1.9-12.8 1.1-14a60.3 60.3 0 0 1 4.6-13.7 50 50 0 0 1 18.1-22c3.1 3.5 1.3 10.1.4 14.2a79.6 79.6 0 0 1-5.4 15c-4 8.6-9 17.5-18.1 20.6Z" class="ac38155e-30db-421e-9606-cb49b13e264a"/>
  <path d="M717.2 227.4a11.6 11.6 0 0 1 2.3.5 51.8 51.8 0 0 1 19.8 10.4 8.4 8.4 0 0 0 4 2.4c.6-1.3-.3-2.8-1.2-3.9a51.7 51.7 0 0 0-9.3-8.5c-3.1-2.2-7-3.3-9.9-5.5-1.9-1.4-2.3-4 .2-4.8s6.4 1 8.7 1.8c14 4.7 23.6 14 28.2 28.2a12.4 12.4 0 0 1 0 3.4 28.2 28.2 0 0 0-16-3.4h-4.6a23.8 23.8 0 0 1-15.8-6 31.3 31.3 0 0 1-6.2-7.5c-2.2-3.5-4.3-7.4-.2-7.1Z" class="b9fae9a4-f728-4f20-8584-2d4ac3a57d2e"/>
  <path fill="#fff" d="M587.4 218.2c9 1.1 13 1.8 24.7-1a26 26 0 0 1 .2 5.6c-3.3-.3-7.4.6-10.4.6-5 0-10-.1-15-.4a11.1 11.1 0 0 1 .5-4.8Z"/>
  <path fill="#ee646b" d="M603.2 237.5a13.2 13.2 0 0 1-4.6 0c-7-1.1-8.7-2.4-10.4-8.5 3.9.3 7.7.4 11.6.4h6.2c1.5 0 3.7-.6 5.4-.6l-.4 2c-1 4-4 5.9-7.8 6.7Z"/>
  <path d="M438.7 248a42.4 42.4 0 0 1 28.2-28.2c1.9-.6 6.7-2.5 8.5-1 2.6 2.1-1.8 2.8-3.3 3.5a56 56 0 0 0-5.6 3 102 102 0 0 0-9.8 7.2 23.4 23.4 0 0 0-5 5.5c-.5.9-.8 2.3 0 2.6a1.8 1.8 0 0 0 1.6-.5 132.3 132.3 0 0 1 23.5-13.1 7.8 7.8 0 0 1 4.5-1c7.5 1.5-3.9 14-6.2 16a23.8 23.8 0 0 1-15.8 6h-4.6a28.2 28.2 0 0 0-16 3.4 12.4 12.4 0 0 1 0-3.4Z" class="b9fae9a4-f728-4f20-8584-2d4ac3a57d2e"/>
  <path d="M907.9 309.5a46.8 46.8 0 0 0-16.7-23.6 65.1 65.1 0 0 0-34.8-12.3 93.2 93.2 0 0 0-59.2 18 104.6 104.6 0 0 0-.7-12.3c-.3-2.3-.4-4.6-.5-7a20 20 0 0 0-4-10.6 69.7 69.7 0 0 0-15.7-15l-2.4-1.7c-5-3-9.6-6.4-11.7-12.2a50 50 0 0 0-34-22.5c-4.9-.8-10-.2-15 0-2.9 0-5.7.6-8.6.7a36.5 36.5 0 0 1-18.7-5 7.5 7.5 0 0 1-4.4-7.3c0-6.3-.7-12.6-1.1-19.3l3.8-.7c2.4-.5 3.3-1.6 3.5-3.9.4-5-1.5-7.8-6.6-9.2l-3.8-.7c-2-.4-2.4-7.8-2.5-10.8l2 .8c2.3 1 4 .2 5.7-1.4a7.5 7.5 0 0 0 2.2-7.9l-1.6-6.1a73.2 73.2 0 0 0-12.6-23.8 42.6 42.6 0 0 0-13.1-12c-1.2-.6-2.2-1.4-3.5-2.2l1.1-2.8a15 15 0 0 0-2.7-16.6 23.2 23.2 0 0 0-7.8-6l-11.4-5.5c-.3-2.6-.5-5.3-1-8a19.6 19.6 0 0 0-8.7-13.6c-4.8-3.2-9.5-2.4-13.1 2.1L609 53a24.6 24.6 0 0 1-8.4 6.3 38 38 0 0 0-2-4.6 24.2 24.2 0 0 0-3.8-5c-2.8-2.8-5.7-3.2-9-1.2a55 55 0 0 0-8.3 6.1c-3.6 3.3-3.4 7-1 11a16.9 16.9 0 0 0 2.3 2.5l2.6 2.7a43.8 43.8 0 0 1-10.7 3 53.6 53.6 0 0 0-17.3 6.3 32 32 0 0 0-10.2 9.2A22 22 0 0 0 540 110l1 3.3-1.9 1.6a89 89 0 0 0-20.2 22 57.5 57.5 0 0 0-7 14.5c-1.6 4.8.7 8.3 5.8 8.8 1.4.1 2.7 0 4 .2.4 0 .7.4 1 .6a16 16 0 0 1-.4 2.2 9.7 9.7 0 0 1-.9 1.7l-3.8.7c-5 1.4-7 4.1-6.6 9.2.2 2.3 1.2 3.4 3.5 3.9l3.8.7c-.4 6.7-1 13-1 19.3 0 3.7-1.7 5.8-4.5 7.4a36.5 36.5 0 0 1-18.7 5c-2.9-.2-5.7-.7-8.6-.8-5-.1-10.1-.8-15 0a49.9 49.9 0 0 0-34 22.5c-2.1 5.8-6.7 9.2-11.7 12.2l-2.3 1.6a69.7 69.7 0 0 0-15.8 15.1 20 20 0 0 0-4 10.7c-.1 2.3-.2 4.6-.5 6.9a124 124 0 0 0-.3 23c.6 9 1.2 18 2 27a291.8 291.8 0 0 0 15.2 69.6 190.1 190.1 0 0 0 23.5 47.3c4.2 6.2 7.1 13 11.7 19 8.7 11 18 21 27.1 31.3a115 115 0 0 0 27.8 21.5 78.6 78.6 0 0 0 12.9 6.5c7.3 2.8 14.7 5.7 22.1 8.2a148 148 0 0 0 14.5 3.6 229 229 0 0 0 52.2 4.5c15.2-.1 29.2-3.3 43.7-8.1 7.5-2.5 14.8-5.4 22.1-8.2a78.6 78.6 0 0 0 13-6.5 185 185 0 0 0 17-11.6c2.7-2.2 5.4-4.5 8-6.9a144.3 144.3 0 0 0 30.6-36.7c.8-1.6 3.5-9 5.9-9l4.6-.2c7.3-.6 14.4-.9 21.4-1.7 7.3-.9 14.5-2 21.6-3.5s14.1-3.7 21-5.9a117 117 0 0 0 26-11A171.6 171.6 0 0 0 876 408a127.8 127.8 0 0 0 28.6-39.4 78.7 78.7 0 0 0 3.3-59Zm-114.5 32.1 3.7-3a69.1 69.1 0 0 1 26.9-14 30 30 0 0 1 15.9-.9c7 2 11.5 6.4 13.4 13a33.5 33.5 0 0 1-2.4 25.7 63.2 63.2 0 0 1-18.6 21 131 131 0 0 1-40.5 20c-5.1 1.7-10.3 3.2-15.5 4.4l3.3-8.9a300 300 0 0 0 12.3-46.7l1.5-10.6Zm-76.2-114.2a11.6 11.6 0 0 1 2.3.5 51.8 51.8 0 0 1 19.8 10.4 8.4 8.4 0 0 0 4 2.4c.6-1.3-.3-2.8-1.2-3.9a51.7 51.7 0 0 0-9.3-8.5c-3.1-2.2-7-3.3-9.9-5.5-1.9-1.4-2.3-4 .2-4.8s6.4 1 8.7 1.8c14 4.7 23.6 14 28.2 28.2a12.4 12.4 0 0 1 0 3.4 28.2 28.2 0 0 0-16-3.4h-4.6a23.8 23.8 0 0 1-15.8-6 31.3 31.3 0 0 1-6.2-7.5c-2.2-3.5-4.3-7.4-.2-7.1Zm-39.7 9c1-4.2.6-8.8 2.6-13a91.3 91.3 0 0 1 20.7 2.6 5.3 5.3 0 0 1 2.7 1.9 39.8 39.8 0 0 1 3.1 4.8c1.4 2.3 2.5 4.8 4 7a33.5 33.5 0 0 0 25.7 16.5 73.9 73.9 0 0 0 9.8.2c5.4-.3 10.2 1 13.7 5.6a9.4 9.4 0 0 0 1.1 1.3 4 4 0 0 0 4.2 1c2.7-.8 4.3-2.5 4.4-5.4a24.9 24.9 0 0 1 .2-2.8c.2-1-.4-2.4.9-3 .4 0 .8 0 1 .2a88.3 88.3 0 0 1 12.8 12.5c4.6 5.3 3 12-.8 16.3-1.6 1.8-6.2 7.2-8.8 7.2-2.3 0-7.2-4.6-9-6a75.2 75.2 0 0 0-10-6.4 338 338 0 0 0-22.2-11 171.3 171.3 0 0 0-46-14l-9.2-1a15.6 15.6 0 0 1-3-1.2c.7-4.6 1.2-9 2.1-13.3Zm6.2 23.3A202 202 0 0 1 751 284c3.8 2.1 8.9 4 11 8.2 2.7 5.4-1.6 8-5.8 10.6a160.4 160.4 0 0 1-34 15.4 310.8 310.8 0 0 1-48 11.7c-9.5 1.5-19 3.2-28.5 4.3-9.7 1.2-19.5 1.8-29.3 2.6a215.8 215.8 0 0 1-34 0c-9.8-.8-19.6-1.4-29.3-2.6-9.6-1.1-19-2.8-28.5-4.3a311 311 0 0 1-48-11.7 169 169 0 0 1-23.4-9.6q-5.8-2.8-11.3-6.2c-3-1.9-6.4-3.6-5.4-7.8 1.2-5.3 7-8.2 11.3-10.6a202.2 202.2 0 0 1 67.3-24.3c3.1-.5 6.3-1.6 9.8-.7.9 4 1.8 8 2.4 11.9.7 4.3 2.5 7.6 6.5 9.5 1.6.7 3 1.8 4.6 2.4 5.2 1.9 10.4 4 15.8 5.4a166 166 0 0 0 30.7 4.5 219.3 219.3 0 0 0 29 0c10.3-.8 20.7-1.8 30.7-4.5 5.4-1.5 10.6-3.5 15.8-5.4 1.6-.6 3-1.7 4.5-2.4 4-2 5.9-5.2 6.5-9.5.6-4 1.6-7.9 2.4-12 3.5-.8 6.7.3 9.9.8Zm-62-113.7a10.5 10.5 0 0 1 4.2-7.9 24.7 24.7 0 0 1 2.4 1.9 41.4 41.4 0 0 0 27 11.2c3.2.2 6.4.4 9.6.8a9.9 9.9 0 0 0 .2 1.6A60.2 60.2 0 0 0 668 164c-6.7 0-13-.3-19.3-.7l-13.3-.7c-4.4-.2-8.8-.6-13.2-.7-15.2-.5-30.3-.5-45.5 0-4.4 0-8.8.4-13.2.7l-13.3.7c-6.3.4-12.6.8-19.3.7l1.2-3.5c3.7-.7 7.3-1.3 10.8-2.1a66 66 0 0 0 29-16c1.2-1.1 2.1-2.8 4.3-3a44 44 0 0 0 24.2 15.5c4.4 1.4 9 2.3 13.6 1.4 6-1 7.6-3 7.8-9.2V146ZM532 188c1.7 4.3 3.3 8.6 5.1 12.8 2.4 5.5 7 8.3 12.6 8.9a84.5 84.5 0 0 0 25.3-1.3 8.7 8.7 0 0 0 5.3-3.2 65.7 65.7 0 0 0 4.6-6.6 58 58 0 0 0 3.1-6.8 10.3 10.3 0 0 1 7-6.2 13.9 13.9 0 0 1 8.4 0 10.3 10.3 0 0 1 7 6.2 58 58 0 0 0 3.1 6.8 65.7 65.7 0 0 0 4.6 6.6 8.7 8.7 0 0 0 5.4 3.2 84.5 84.5 0 0 0 25.2 1.3c5.6-.6 10.2-3.4 12.6-8.9l5.2-12.8 2.5-6.4a12.6 12.6 0 0 1 1.8-2.1 30.8 30.8 0 0 1 1.5 8.3 147.4 147.4 0 0 1-1.7 35.6c-2.2 12.5-4 25-6.2 37.5-.6 4-1.6 8-2.4 11.6-2.2 2.2-4.8 3-7.3 4a147.5 147.5 0 0 1-27.4 6.3 214.2 214.2 0 0 1-56.2 0 147.6 147.6 0 0 1-27.5-6.3c-2.5-.9-5-1.7-7.3-4-.7-3.7-1.7-7.6-2.4-11.6-2-12.5-4-25-6.2-37.5a147 147 0 0 1-1.6-35.6 30.8 30.8 0 0 1 1.5-8.3 12.4 12.4 0 0 1 1.7 2.1c1 2.1 1.8 4.3 2.7 6.4Zm57.5-133c4.2 4.6 7 13.8 7.3 24.3 0 .8-.6 1.5-1.2 3-2.2-5-3.6-9-5.8-12.4-2-3.3-5-6-7.7-9.2a13.5 13.5 0 0 1 7.4-5.7Zm-68 96.4a12.6 12.6 0 0 1 .4-2.7 71 71 0 0 1 14.3-20c2.2-2.4 4.3-5 7-6.8 3.5-2.3 6.5-1.6 10.3-.9a13.8 13.8 0 0 0 2.9.2c.9 0 4-.5 3.1-2.1a3.3 3.3 0 0 0-1.9-1.2 15.5 15.5 0 0 1-9.8-10.5 15.2 15.2 0 0 1 3.8-15c4.2-4.7 9.7-7.4 15.7-9 6.3-1.8 12.6-3 19.3-4.7l1.6 3.9-2.8 1.7a3.6 3.6 0 0 0-1.7 4A3.4 3.4 0 0 0 587 91a29.8 29.8 0 0 0 19.4-6c1.9-1.5 2.2-4.5.5-5.6-3.3-2.2-3.5-5.3-3.7-8.5v-2.6c4.5-4.4 10.7-7 14.3-12.6 4.5 2 6 5.8 6.4 10a30.4 30.4 0 0 1-8.7 24.8 2.8 2.8 0 0 0-1 2 2 2 0 0 0 2 1.7 5.9 5.9 0 0 0 2.7-.8c2.6-1.2 5.3-2.5 6.8-4.9a15.3 15.3 0 0 1 6.6-5.7c5.2-2.4 11 1.2 14 5.6 2.6 3.8.8 8.9-2.2 12a34.9 34.9 0 0 1-7.1 6 29.4 29.4 0 0 0-3.2 1.8 3.4 3.4 0 0 0-1.3 1.5 1.7 1.7 0 0 0 .3 1.8 2.6 2.6 0 0 0 2.3.3c5.8-1.2 12-5 17.8-1.5a27.3 27.3 0 0 1 6.3 5.3 75 75 0 0 1 14.7 23.2 23.1 23.1 0 0 1 1.5 6.1 11.3 11.3 0 0 1-2 .1l-14.2-2c-3.6-.4-7.3-.5-10.8-1.3a30 30 0 0 1-13-6l-7-6c-3.2-2.3-4.7-2.2-7.6.6-4 4-7 8.6-7.9 14.4a21.8 21.8 0 0 1-.5 2.3l-.4.6c-2.5.9-5.2.4-7.8-.2a41.6 41.6 0 0 1-16-7.4 41.1 41.1 0 0 1-6-6.2 8.8 8.8 0 0 1-2.3-6.8 3.8 3.8 0 0 0-3.5-4.4 4.7 4.7 0 0 0-4.4 3 6.8 6.8 0 0 0-.4 2.9 3.8 3.8 0 0 1-1.2 3 57.9 57.9 0 0 1-33.7 19.6 41.2 41.2 0 0 1-15.3.3ZM438.6 248a42.4 42.4 0 0 1 28.2-28.2c1.9-.6 6.7-2.5 8.5-1 2.6 2.1-1.8 2.8-3.3 3.5a56 56 0 0 0-5.6 3 102 102 0 0 0-9.8 7.2 23.4 23.4 0 0 0-5 5.5c-.5.9-.8 2.3 0 2.6a1.8 1.8 0 0 0 1.6-.5 132.3 132.3 0 0 1 23.5-13.1 7.8 7.8 0 0 1 4.5-1c7.5 1.5-3.9 14-6.2 16a23.8 23.8 0 0 1-15.8 6h-4.6a28.2 28.2 0 0 0-16 3.4 12.4 12.4 0 0 1 0-3.4Zm-24.4 17.7a88.3 88.3 0 0 1 12.8-12.4c.2-.2.7-.2 1-.3 1.3.7.8 2 1 3a24.9 24.9 0 0 1 .1 2.9c.2 2.9 1.7 4.5 4.4 5.4a4 4 0 0 0 4.2-1 9.4 9.4 0 0 0 1.1-1.3c3.5-4.7 8.3-6 13.8-5.7a73.9 73.9 0 0 0 9.7-.1c11.4-1 19.6-7.2 25.7-16.5 1.5-2.3 2.6-4.7 4-7a39.8 39.8 0 0 1 3.1-4.9 5.3 5.3 0 0 1 2.8-1.8 91.3 91.3 0 0 1 20.7-2.6c2 4.2 1.6 8.7 2.5 13s1.4 8.6 2.2 13.3a15.8 15.8 0 0 1-3 1.2l-9.2 1a167.6 167.6 0 0 0-46 14c-7.6 3.4-15 7.1-22.2 11a71.7 71.7 0 0 0-12 8c-3.1 2.7-6.2 4.3-10.2 2.2-2.1-1-4.1-3.3-5.6-5-3.8-4.4-5.4-11.1-.9-16.4ZM749 440.5c-10.3 15.3-20 30.8-32.4 44.7a132.3 132.3 0 0 1-27.2 23 89.7 89.7 0 0 1-23.9 10.9c-8 2.4-15.5 6.5-23.7 8.4-9.8 2.4-19.8 2.6-29.8 3.1a273 273 0 0 1-49.3-2.2c-9.8-1.3-18-5.2-27-8.5s-18.3-6.4-26.5-11.8a132.3 132.3 0 0 1-27.2-22.9 416.7 416.7 0 0 1-30.4-40.6 196 196 0 0 1-25.4-51.4 286.7 286.7 0 0 1-15.5-86.5l-.6-15c0-.9-.3-2 1.1-2.7l3.6 3.3a141.8 141.8 0 0 0 45 28.7 255.8 255.8 0 0 0 42.8 13.3 767 767 0 0 0 36.8 6.7c7.2 1.2 14.5 1.8 21.8 2.5 7.4.8 14.9 1.4 22.4 2a194.8 194.8 0 0 0 31.5 0c7.5-.5 15-1.2 22.4-2 7.3-.7 14.6-1.3 21.8-2.5a777 777 0 0 0 36.8-6.7 255.8 255.8 0 0 0 42.8-13.3 141.8 141.8 0 0 0 45-28.6l3.6-3.3c1.4.7 1.2 1.8 1.1 2.7l-.6 15a429 429 0 0 1-4.5 42.4c-2.3 15-6.3 29.5-11 44a189.3 189.3 0 0 1-23.5 47.3ZM902.7 345a59 59 0 0 1-4.2 16.1 113.8 113.8 0 0 1-15.8 26.7 167.7 167.7 0 0 1-33.2 31 95.7 95.7 0 0 1-26.5 13.7l-14.3 4.4a165.3 165.3 0 0 1-28.6 6.2c-3.3.4-8 1.7-10.9-.3-3.1-2.2-4.2-7.6-3.5-11.2 2.3-12.2 16-16.4 26.1-19.4a145.8 145.8 0 0 0 45-21.7 73 73 0 0 0 18.7-19.3c4.8-7.4 8-15.3 7.6-24.4 0-2 0-4.2-.3-6.3-1-8-4-14.6-10.4-19.9a26.8 26.8 0 0 0-19.3-6 63.2 63.2 0 0 0-19.5 4.3c-3.6 1.4-11.7 8-15.4 6.2-7.7-3.7-2.2-23.8 3.1-27.8 4.1-3 10.5-5.3 15.3-7.5a78 78 0 0 1 18.2-6 69 69 0 0 1 41.3 3.1 40 40 0 0 1 22 20.9 70 70 0 0 1 4.7 37.2Z" class="bef4a47d-bb89-4050-a01b-e6788749d85e"/>
  <path d="M653.3 260a50.7 50.7 0 0 0 .7 7.2c.2.8.4 1.6 1.1 1.8a1.3 1.3 0 0 0 1.4-.6 3.8 3.8 0 0 0 .5-1.5q1.9-11.2 3.4-22.3c.8-6.3 2-13.3 1.2-19.6a2.6 2.6 0 0 0-.4-1.2 1.8 1.8 0 0 0-2.5-.1 4.9 4.9 0 0 0-1.3 2.3 72.6 72.6 0 0 0-3.8 20.8c-.2 4.4-.5 8.9-.3 13.3Zm-38.1-51.7a5 5 0 0 0-4.4-.4c-.7.2-1.3.7-2 1-7 2.4-14 4-21-.2a4.2 4.2 0 0 0-.6-.2 6.2 6.2 0 0 0-8.1 5c-.2 1.8 0 3.8 0 5.7a36.3 36.3 0 0 0 2 15.3c1.8 5 5 8.6 10.3 10a44.5 44.5 0 0 0 9 1.7c8.6.3 17.7-5.3 19-14.2.6-4.2 1.4-8.4 1.7-12.6.5-6.7-.2-7.7-5.9-11.1Zm-27.8 10c9 1 13 1.7 24.7-1a26 26 0 0 1 .2 5.5c-3.3-.3-7.4.6-10.4.6-5 0-10-.1-15-.4a11.1 11.1 0 0 1 .5-4.8Zm15.8 19.2a13.2 13.2 0 0 1-4.6 0c-7-1.1-8.7-2.4-10.4-8.5 3.9.3 7.7.4 11.6.4h6.2c1.5 0 3.7-.6 5.4-.6l-.4 2c-1 4-4 5.9-7.8 6.7Zm-125.3-92.2c4.3-6.2 8.5-19.2 1.3-25a16.1 16.1 0 0 0-9.4-3.6c-1 0-2.4.3-2.6 1.3s.6 1.6 1.3 2.2c4 3.1 7 6.8 6.4 12.3-1 11.2-12.7 17.8-17.1 27.5-2.8 6.2-3 13 1 18.7 3.2 4.7 9.8 10.5 15.8 10.1a2.7 2.7 0 0 0 2.3-1.1 2.3 2.3 0 0 0-.6-2.5 8.9 8.9 0 0 0-2.4-1.5c-5.4-2.6-8-7.3-9-13s0-9.9 3.7-14.4c3-3.8 6.5-7 9.3-11ZM729.8 117a15.4 15.4 0 0 0-4.3-2 6 6 0 0 0-2.3-.5 2 2 0 0 0-1.8 1.3c-.3 1 .5 2 1.2 2.9a28.7 28.7 0 0 1 6.3 13c.3 1 .4 2.3.6 3.4 1 8.7-2.2 12.4-8.2 17.8-9.5 8.4-7 18.5-.6 28.2.7 1.2 3.3 3 4.6 2a2.1 2.1 0 0 0 .8-2 7.8 7.8 0 0 0-.8-2.2 20.5 20.5 0 0 1 .2-18.3c2.7-5.4 8.5-8 11.3-13.4 4.8-9.2 1.8-24.1-7-30.2Zm33.4 16.8a11.6 11.6 0 0 0-7.3-2.6 1.2 1.2 0 0 0-.8.3 1.1 1.1 0 0 0-.3.8 9.8 9.8 0 0 0 .5 3.4 26.9 26.9 0 0 0 1.1 2.6 33.8 33.8 0 0 1 3 12.4c.3 6.7-2.4 10.5-5.9 15.8a17.5 17.5 0 0 0-1 16.6c1 2.4 5.5 10.5 8.7 8 1.1-.8 1.2-2.5.7-3.7s-1.3-2.4-1.9-3.7a11.2 11.2 0 0 1-.8-4.3 21.8 21.8 0 0 1 3.1-11.7c2.2-3.4 5.5-5.7 7.2-9.4a23 23 0 0 0-6.3-24.5ZM438 136.4a31 31 0 0 0-6.4-1.8 1.8 1.8 0 0 0-1.7.2 1.2 1.2 0 0 0 .1 1.6 4.3 4.3 0 0 0 1.5 1c17 8.5.9 26.8-1.1 38.4a19.6 19.6 0 0 0 7 19.1c1.5 1.2 6.6 3.5 8.3 2.3 2.3-1.7-6-9.3-7.1-11.2-4.8-8.8 4-20 6.5-28.2a21.3 21.3 0 0 0-.5-15 12.2 12.2 0 0 0-6.6-6.4Zm118 234.8 1.3 3 2.2 4.8a152 152 0 0 1 2.7 6.6 32.4 32.4 0 0 0 1.5 3.6 31.1 31.1 0 0 0 1.6 2.9 6.2 6.2 0 0 0 1.2 1.4 6.7 6.7 0 0 0 1.5 1 8.8 8.8 0 0 0 2.1.6 2.5 2.5 0 0 0 1.6-.4 1.6 1.6 0 0 0 .7-1 8.8 8.8 0 0 0 .1-1.4 19.6 19.6 0 0 0-.2-2 21.8 21.8 0 0 0-1.9-4.7l-3.4-7.1q1.4 0 6.2-2.4 2.8 6 3.1 7.2l.8 2.4a22.5 22.5 0 0 0 1.5 2.9c.6 1 1 1.7 1.3 1.7a2.2 2.2 0 0 0 1.4-.5 4.6 4.6 0 0 0 1.4-1.2 14.1 14.1 0 0 0 1-1.4 3 3 0 0 0 .2-2 10.6 10.6 0 0 0-.5-2l-1.4-3a46.2 46.2 0 0 0-3-5.2l-2.6-4.2-1.7-2.8c-.7-1-1-1.9-1.5-2.6a8.2 8.2 0 0 0-1.3-1.8 3 3 0 0 0-2-1 2.4 2.4 0 0 0-1.6.3 1.1 1.1 0 0 0-.3 1.1 14.3 14.3 0 0 0 1.2 3l2.6 5.8a17.4 17.4 0 0 0-6.4 2 68 68 0 0 0-4.2-7.4c-1-1.4-1.9-2.1-2.5-2.2a3 3 0 0 0-2.4 1 2.4 2.4 0 0 0-1 2.6l.7 2.4Zm34.2 15.8a5 5 0 0 0 2.3.6 41.7 41.7 0 0 0 6.4-.6 12 12 0 0 0 6.4-3.7 7.5 7.5 0 0 0 1.5-2.3 24 24 0 0 0 1-2.6 16 16 0 0 0-.6-5.6 16.7 16.7 0 0 0-2-4.5 12.8 12.8 0 0 0-2.6-3 7.7 7.7 0 0 0-3-1.4l-4.4-.1a5.7 5.7 0 0 0-4 1.3 9.8 9.8 0 0 0-2.6 4.2 31.5 31.5 0 0 0-1.1 5c-.4 5-.2 8.4.6 10a6 6 0 0 0 2.1 2.8Zm2.5-8.6a4.7 4.7 0 0 1 1-2.4 3.1 3.1 0 0 1 2-1.3 4.2 4.2 0 0 1 2 .1 4.7 4.7 0 0 1 1.5 1 2.4 2.4 0 0 1 .5 2.1c-.1 1-1 2.3-2.7 3.8l-1.1.6a2.7 2.7 0 0 1-2.6-1.3 4.7 4.7 0 0 1-.6-2.6Zm21.3 12.7c.5 0 1.3-.6 2.5-1.7a22.2 22.2 0 0 0 3.7-5.6l4.1-7.8 3.1 1.7a6.1 6.1 0 0 0 2.6.8 2.8 2.8 0 0 0 2-2.4c.3-1.3 0-2.3-.6-2.9-1.6-.5-3-1-4.2-1.6a14.8 14.8 0 0 0 2.1-2.6 16.8 16.8 0 0 0 .7-2.1 4 4 0 0 0-.2-2.8 9.5 9.5 0 0 0-3.3-1.1 2 2 0 0 0-1.7.6l-1.1 1.3-1.6 3.9a4.8 4.8 0 0 1-2-1.7 4.3 4.3 0 0 0-2.2-1.5 3 3 0 0 0-2.2 0 2 2 0 0 0-1 .8l-.7 1.5a2.6 2.6 0 0 0 0 2.2 3.7 3.7 0 0 0 2 2l3 1.4-4.5 9.8a9.7 9.7 0 0 0-1.9 2 5.8 5.8 0 0 0-.2 5.3 2.3 2.3 0 0 0 1.6.5Zm-83.7 51.7a2.8 2.8 0 0 0 1.8-.7l1.4-1.4a4.3 4.3 0 0 0 1-1.5 2.7 2.7 0 0 0 0-1.6 2.4 2.4 0 0 0-.6-1.2 2.7 2.7 0 0 0-1.1-.6 6.5 6.5 0 0 0-1.5-.1 6 6 0 0 1-2-.6 5.4 5.4 0 0 1-1.9-1.3 3.9 3.9 0 0 1-1-1.8 4.7 4.7 0 0 1 0-2 3.8 3.8 0 0 1 .9-1.8 3.6 3.6 0 0 1 1.7-1 7.2 7.2 0 0 1 2.3-.4h2.2l2.8.3a29.9 29.9 0 0 1 3.4.4l2.5.4a7.8 7.8 0 0 1 2 .9 6.2 6.2 0 0 1 1.9 1.4 3.6 3.6 0 0 1 .8 2.3 2 2 0 0 1-.8 2 4.4 4.4 0 0 1-1.8.6q-.8.2-2 .2a7.5 7.5 0 0 0-2.4.5 2 2 0 0 0-1.3 1.1 6.2 6.2 0 0 0-.2 2.1 5.5 5.5 0 0 0 .4 2 2.7 2.7 0 0 0 .8 1 3.7 3.7 0 0 0 1.3.6 7.5 7.5 0 0 0 1.4.3l3.4-.2a16.8 16.8 0 0 0 4.1-.9 8.5 8.5 0 0 0 2.4-1.3 4.7 4.7 0 0 0 1.3-1.7 16.4 16.4 0 0 0 .8-2.2 12.7 12.7 0 0 0 .4-2.4c0-.8.1-1.8 0-3.2a8.4 8.4 0 0 0-2-5.7 8.3 8.3 0 0 0-2-1.6 8.5 8.5 0 0 0-2.1-1 19.7 19.7 0 0 0-2.3-.3 41.2 41.2 0 0 0-8-.1l-5 .1-2.8.2a11.9 11.9 0 0 0-2.6.7 7.7 7.7 0 0 0-2.6 1.6 20 20 0 0 0-1.8 1.9 5.6 5.6 0 0 0-1 2 12.2 12.2 0 0 0-.4 2.8v3.4a11.3 11.3 0 0 0 .8 4.2 7.7 7.7 0 0 0 1 1.5 8.5 8.5 0 0 0 1.6 1 6.7 6.7 0 0 0 2.5 1 11.1 11.1 0 0 0 2.3 0Zm17.7 19.6a8.6 8.6 0 0 0 0-5 36.6 36.6 0 0 0-1.7-4.1q2.5-1.6 5.5-3.2a10.4 10.4 0 0 0 4.3-4.2 3 3 0 0 0-.6-1.9 1.8 1.8 0 0 0-1.6-.7 27.2 27.2 0 0 0-5.4 2l-14 7a31 31 0 0 0-4.3 1.9l-2 1a4.3 4.3 0 0 0-1.6 1.3 4.6 4.6 0 0 0-.1 2.4 5 5 0 0 0 1.1 2.2 5 5 0 0 0 3.3 1 26.6 26.6 0 0 0 5-2.5 10 10 0 0 0 2.3-1.8c0-.2 1.5.3 3.5-.5.5 1.3.4 1.2.4 1.8a5 5 0 0 1-1 2.2 4.6 4.6 0 0 1-2 1.8l-4.4 2q-3.3 1.7-3.1 3.1a10 10 0 0 0 .6 2.5 2.5 2.5 0 0 0 1.2 1.3c.5.3 1.9-.2 4.2-1.3a39 39 0 0 0 4.4-2.5l3-2.2a10.8 10.8 0 0 0 3-3.6Zm16.2 8.3-3.3-3a5.7 5.7 0 0 0-4-1.6 9.8 9.8 0 0 0-4.7 1.5 30.6 30.6 0 0 0-4.1 3.1 24 24 0 0 0-6 8 6 6 0 0 0-.2 3.5 5.1 5.1 0 0 0 1.4 1.8 40 40 0 0 0 5.3 3.8 12 12 0 0 0 7.2 1.3 7.3 7.3 0 0 0 2.7-.7 20.9 20.9 0 0 0 2.4-1.3 16 16 0 0 0 3.2-4.7 16.7 16.7 0 0 0 1.3-4.7 12.7 12.7 0 0 0 0-4 7.6 7.6 0 0 0-1.2-3Zm-9 10.7c-.8.7-2.3 1.1-4.6 1.2l-1.2-.3a2.7 2.7 0 0 1-1.2-2.7 4.8 4.8 0 0 1 1.3-2.4 4.5 4.5 0 0 1 2.3-1.2 3.1 3.1 0 0 1 2.4.4 4.2 4.2 0 0 1 1.4 1.4 4.9 4.9 0 0 1 .6 1.7c0 .6-.3 1.2-1 2Zm30.1 2.4a8.2 8.2 0 0 0-1.4-2.6 7.7 7.7 0 0 0-2.6-2 16.2 16.2 0 0 0-3.4-1.2 6.1 6.1 0 0 0-3.2 0 6 6 0 0 0-2.5 1.5 14 14 0 0 0-2.2 3.5 22.3 22.3 0 0 0-1.9 6.3 75 75 0 0 0-.8 5.8 9.4 9.4 0 0 0 .2 2.9 4.6 4.6 0 0 0 .8 1.7 5.2 5.2 0 0 0 1.7 1.3l3.5 1.3a6 6 0 0 0 3.2.4 8.4 8.4 0 0 0 2.8-1 5.7 5.7 0 0 0 2-1.7 11.2 11.2 0 0 0 1-2 2.9 2.9 0 0 0 0-2.2 2 2 0 0 0-1.6-1.4 1.5 1.5 0 0 0-1.7 1c-1.6 1.5-2.6 2.3-3 2.3a4.3 4.3 0 0 1-1.6-.3c-.6-.2-1-1-1.4-2.4s0-3.4 1.2-6 2-3.9 2.9-3.9a5.5 5.5 0 0 1 2.2.6c.7.4 1.6 1.5 2.5 3.5 1.5.5 2.6.4 3.3 0a4.5 4.5 0 0 0 .6-2.7 10.8 10.8 0 0 0-.6-2.7Zm22.3 1.5a13.2 13.2 0 0 0-2.8-2.8 7.6 7.6 0 0 0-3-1.2l-4.4.3a5.6 5.6 0 0 0-4 1.7 10 10 0 0 0-2.2 4.4 31.5 31.5 0 0 0-.7 5.1q.2 7.6 1.6 9.8a6 6 0 0 0 2.4 2.6 5 5 0 0 0 2.3.3 39.5 39.5 0 0 0 6.4-1 12.1 12.1 0 0 0 6-4.4 7.6 7.6 0 0 0 1.3-2.4 23.2 23.2 0 0 0 .7-2.6 15.8 15.8 0 0 0-1.1-5.5 17.1 17.1 0 0 0-2.5-4.3Zm-6.8 14-1.1.7a2.7 2.7 0 0 1-2.7-1 4.6 4.6 0 0 1-.8-2.5 4.6 4.6 0 0 1 .7-2.5 3.1 3.1 0 0 1 2-1.5 4.1 4.1 0 0 1 2 0 4.8 4.8 0 0 1 1.5.7c.5.3.7 1 .7 2.1s-.8 2.4-2.3 4Zm20.6-16.8-1.8-5-3-6.5a5.2 5.2 0 0 0-3.8-1.3l-2.5.3a3.3 3.3 0 0 0-1.4.6 2.8 2.8 0 0 0-1 1.5 59.6 59.6 0 0 1 4.4 6.2 47.1 47.1 0 0 1 3.2 6.3c.9 2 1.6 3.7 2 5.2a44 44 0 0 1 1.4 4.2c1 2.6 1.7 4.2 2.4 4.7a5.7 5.7 0 0 0 2.8.9 14.5 14.5 0 0 0 2.3-1.3c.7-.5 1-1.5.7-3.1Zm23.2-6.5a20.2 20.2 0 0 1-5.4-4.5q-2.4-2.8-4-3.4a11 11 0 0 0-3-.6 5.8 5.8 0 0 0-3.1 1.1 10.4 10.4 0 0 0-2.4 2l-1.2 1.5a4 4 0 0 0-.7 1.8 4.2 4.2 0 0 0 .2 2.1 6.3 6.3 0 0 1 .3 2.2 4.6 4.6 0 0 0 1 2.6 2.9 2.9 0 0 0 2.2 1.6 3.4 3.4 0 0 0 1.8-.2 2.2 2.2 0 0 0 .8-1 10.4 10.4 0 0 0 .5-1.2 5.8 5.8 0 0 0 .2-2.3 10 10 0 0 1 0-2.3 1.7 1.7 0 0 1 .5-1 3.2 3.2 0 0 1 1-.5 1.5 1.5 0 0 1 1.4.3 6.4 6.4 0 0 1 1.1 1 2.5 2.5 0 0 1 .6 1 3.9 3.9 0 0 1 0 1.5 4 4 0 0 1-1 1.8l-2 2a5.1 5.1 0 0 0-1.3 2.2 3.7 3.7 0 0 0-.2 2 5.2 5.2 0 0 0 .8 1.8l1.4 1.9a3.8 3.8 0 0 0 2.4 1.4 7.7 7.7 0 0 0 2.2.2 14.5 14.5 0 0 0 1.8-.6l2-1.5a9.2 9.2 0 0 0 1.8-1.8 3.2 3.2 0 0 0 .8-1.7c0-.4 0-1.6-.3-3.5a3.7 3.7 0 0 1 1.8-.1 9.7 9.7 0 0 0 2.4 0 2.8 2.8 0 0 0 1.7-.6q.3-.4-.3-1.4a47 47 0 0 0-5.8-3.9Zm-5.3 10.5a3.1 3.1 0 0 1-1.6 0 2.7 2.7 0 0 1-.3-1.6 2.8 2.8 0 0 1 .7-1.4 1.6 1.6 0 0 1 1.3-.6 1.3 1.3 0 0 1 1 .4 3.1 3.1 0 0 1 .5.9 2.6 2.6 0 0 1 .2.9 3 3 0 0 1-1.8 1.4Zm15.1-28.5q-4-2-7.8-4.2l1.8-3a6.1 6.1 0 0 0 .7-2.6 2.8 2.8 0 0 0-2.3-2q-2-.5-2.9.6c-.5 1.5-1.1 3-1.7 4.1a14.3 14.3 0 0 0-2.6-2 14.6 14.6 0 0 0-2-.8 4 4 0 0 0-2.8.2 9.4 9.4 0 0 0-1.2 3.3 2 2 0 0 0 .6 1.8l1.4 1 3.8 1.7a4.8 4.8 0 0 1-1.7 1.9 4.3 4.3 0 0 0-1.5 2.2 3 3 0 0 0-.1 2.2 2 2 0 0 0 .9 1l1.4.7a2.7 2.7 0 0 0 2.2 0 3.7 3.7 0 0 0 2-2l1.5-3 9.8 4.6a9.8 9.8 0 0 0 1.9 1.9 5.4 5.4 0 0 0 2.3.7 5.3 5.3 0 0 0 3-.4 2.3 2.3 0 0 0 .6-1.5c0-.6-.6-1.4-1.7-2.5a21.9 21.9 0 0 0-5.6-3.9Zm14.9-28.5a7.5 7.5 0 0 0-1.3-2.4 8 8 0 0 0-2-2 6 6 0 0 0-2.3-.8 10.2 10.2 0 0 0-2-.2 2.3 2.3 0 0 0-1.4.4 1.6 1.6 0 0 0-.4 1.2 3 3 0 0 0 .3 1.5 6 6 0 0 0 1.2 1.4 10 10 0 0 0 1.4 1.1 3 3 0 0 1 1 1.2 2.5 2.5 0 0 1 .1 2 3.9 3.9 0 0 1-1 1.8 6.7 6.7 0 0 1-1.7 1c-.8.4-2 .3-3.8-.1a6.1 6.1 0 0 1-.5-2.7 9 9 0 0 0 .4-1.7 11.9 11.9 0 0 0-.3-3 18.7 18.7 0 0 0-.7-3 3 3 0 0 0-1.4-1.5 7 7 0 0 0-3 .2 11.6 11.6 0 0 0-3 1.7 7.6 7.6 0 0 0-2.6 3.2 11.8 11.8 0 0 0-1 4.4 7 7 0 0 0 .2 3.5 9.2 9.2 0 0 0 1.6 3 6 6 0 0 0 2.8 2 21.8 21.8 0 0 0 4.4 1 33.8 33.8 0 0 0 6.1 0 19.5 19.5 0 0 0 5-.7 5 5 0 0 0 2.6-2.4 15.3 15.3 0 0 0 1.5-5.4 15.6 15.6 0 0 0-.2-4.7Zm-17.8 6.8a1.6 1.6 0 0 1-1.2-.9 9.3 9.3 0 0 1-.4-1.8 6.6 6.6 0 0 1 0-2.5 3 3 0 0 1 1-1.7 2.5 2.5 0 0 1 1.8-.3 47 47 0 0 1 .7 7.1 3.2 3.2 0 0 1-2 0Zm-109.6-31.9c6.4 0 6.4-10 0-10s-6.4 10 0 10Zm107.2-.4c6.4 0 6.4-9.9 0-9.9s-6.4 10 0 10Zm-52.3 63.2a38.5 38.5 0 0 0 17.7-5 38 38 0 0 0 13.3-12.6 40 40 0 0 0 .1-35.9 36.4 36.4 0 0 0-5.7-7.4l-.6-.6a1.4 1.4 0 0 0-1-.9 50 50 0 0 0-6-3.9 35.6 35.6 0 0 0-8.5-3.9 36.4 36.4 0 0 0-9.3-1 36 36 0 0 0-9.3 1c-3 .9-5.7 2.7-8.3 4.2a35.2 35.2 0 0 0-7.4 5.5c-2.5 2.4-9.5 7.9-3.6 10.7 1.3.6 2.7.9 4 1.6l2.4 1.3a25.1 25.1 0 0 0-3 4.2c-1 2-2.9 5.3-2.2 7.6.7 2.7 4.3 3 6.6 3.3a29 29 0 0 0 5.7.2 38.9 38.9 0 0 0-.8 7.8 41.1 41.1 0 0 0 1 8.8c.8 3.5 2.3 10 4.9 12.7a5.9 5.9 0 0 0 1.7 1.2c2.5 1.1 6 1 8.3 1Zm25.5-50.2a29.3 29.3 0 0 1 2.6 7.2 29 29 0 0 1 1.4 7.5 42.9 42.9 0 0 1-4 14.7 30.2 30.2 0 0 1-4.9 5.9 29.4 29.4 0 0 1-6 4.5 28.4 28.4 0 0 1-7 2.8l-2 .5a48.1 48.1 0 0 0 13-18.4 69.6 69.6 0 0 0 7-24.7Zm-46-5.8a43.8 43.8 0 0 1 12.9-8 29.3 29.3 0 0 1 7.6-.8 29.8 29.8 0 0 1 7.6.9 24 24 0 0 1 5.5 2.3 47.9 47.9 0 0 0-19 11.5 24.8 24.8 0 0 1-16.8-3.8l2.2-2.2Zm6.8 18.2a23 23 0 0 1-7.1-.1c0-.3.2-.5.3-.7a23 23 0 0 1 1.1-2.1 21.3 21.3 0 0 1 3.3-4c2.5.7 5.3 1.3 5.7.7a34.7 34.7 0 0 0-3 6Zm7.5-1.6A33.8 33.8 0 0 1 610 412a63.3 63.3 0 0 0-20.2 45 34 34 0 0 1 1-29.2Zm2.8 32.6c-1-.1.9-12.8 1.1-14a60.3 60.3 0 0 1 4.6-13.7 49.6 49.6 0 0 1 18.2-22c3 3.5 1.2 10.2.3 14.2a79.6 79.6 0 0 1-5.4 15c-4 8.7-9 17.5-18.1 20.6Z" class="bef4a47d-bb89-4050-a01b-e6788749d85e"/>
  <path fill="#d6c3b0" d="M655.4 182a2.4 2.4 0 0 0-.9.6 6 6 0 0 0-1 2.2 93 93 0 0 1-6.5 14.1 4.4 4.4 0 0 0-.7 1.9c-.1 3.3 4.8 2.4 6 .6A35.8 35.8 0 0 0 658 185c.1-1.2 0-2.7-1.2-3.2a1.7 1.7 0 0 0-1.3.1Zm-78.3 0a2.5 2.5 0 0 0-.9.6 6.4 6.4 0 0 0-1 2.2 93 93 0 0 1-6.5 14.1 4.3 4.3 0 0 0-.7 1.9c-.2 3.3 4.8 2.4 6 .6a35.5 35.5 0 0 0 5.6-16.3c0-1.2 0-2.7-1.2-3.1a1.7 1.7 0 0 0-1.3 0Z"/>
</svg>