<?xml version="1.0" standalone="no"?>
<!DOCTYPE svg PUBLIC "-//W3C//DTD SVG 20010904//EN"
 "http://www.w3.org/TR/2001/REC-SVG-20010904/DTD/svg10.dtd">
<svg version="1.0" xmlns="http://www.w3.org/2000/svg"
 width="256.000000pt" height="256.000000pt" viewBox="0 0 256.000000 256.000000"
 preserveAspectRatio="xMidYMid meet">

<g transform="translate(0.000000,256.000000) scale(0.100000,-0.100000)"
fill="#000000" stroke="none">
<path d="M1125 2549 c-302 -41 -567 -175 -771 -391 -477 -507 -466 -1289 25
-1779 390 -388 971 -486 1461 -244 310 152 552 428 654 748 82 255 82 542 0
793 -119 365 -398 658 -760 798 -174 67 -433 99 -609 75z m-369 -956 c76 -120
163 -257 194 -304 l55 -86 -3 304 -3 303 46 0 45 0 0 -365 0 -365 -54 0 -53 0
-144 223 c-79 122 -167 260 -196 306 l-53 84 0 -306 0 -307 -45 0 -45 0 0 365
0 365 59 0 58 0 139 -217z m894 177 l0 -40 -140 0 -140 0 0 -120 0 -120 130 0
130 0 0 -40 0 -40 -130 0 -130 0 0 -125 0 -125 150 0 150 0 0 -40 0 -40 -195
0 -195 0 0 365 0 365 185 0 185 0 0 -40z m590 0 l0 -40 -105 0 -105 0 0 -325
0 -325 -45 0 -45 0 0 325 0 325 -105 0 -105 0 0 40 0 40 255 0 255 0 0 -40z
m-1904 -605 c18 -19 23 -31 19 -48 -21 -69 -115 -59 -115 13 0 18 8 34 22 44
31 22 45 20 74 -9z m442 -267 c5 -7 33 -68 62 -135 l53 -122 56 126 c57 128
75 151 105 140 15 -6 16 -25 14 -169 -3 -160 -3 -163 -25 -166 -23 -3 -23 -2
-23 125 l-1 128 -56 -128 c-37 -81 -62 -127 -70 -125 -8 2 -38 56 -67 120 -29
65 -56 121 -59 125 -4 3 -7 -51 -7 -120 0 -120 -1 -127 -20 -127 -19 0 -20 7
-20 163 0 90 3 167 7 170 11 11 40 8 51 -5z m500 0 c6 -7 28 -60 50 -118 22
-58 50 -129 61 -158 l21 -53 -27 3 c-21 2 -29 12 -42 46 l-15 43 -70 -3 -69
-3 -16 -42 c-12 -34 -20 -43 -38 -43 -13 0 -23 2 -23 5 0 7 119 316 126 327 8
12 30 10 42 -4z m204 -119 c3 -129 3 -131 31 -155 36 -30 68 -30 104 0 27 23
27 26 31 155 4 115 6 132 21 129 14 -3 16 -22 16 -140 l0 -137 -29 -30 c-55
-57 -158 -50 -196 12 -17 27 -20 51 -20 165 0 124 1 132 19 132 18 0 20 -10
23 -131z m328 -44 c0 -158 -1 -165 -20 -165 -19 0 -20 7 -20 165 0 158 1 165
20 165 19 0 20 -7 20 -165z"/>
<path d="M1232 778 c-12 -35 -22 -66 -22 -70 0 -5 23 -8 51 -8 45 0 50 2 44
18 -4 9 -16 41 -27 70 -11 28 -21 52 -22 52 -1 0 -12 -28 -24 -62z"/>
</g>
</svg>
